:SAMPLES-PER-SECOND 30
:FULLY-SPECIFIED
:DEGREES
242
root  7.0205 24.1517 0.981572 -18.7491 -71.2148 13.5982
RightUpLeg  -61.7384 5.70403 -3.96081
RightLeg  110.146 0.884963 -1.25038
RightFoot  -30.9816 1.13425 7.76048
RightToes  -1.28057e-009 0 -3.6325e-017
Spine  47.9061 -3.94465 4.11405
Spine1  -2.11165 0.613691 -13.7653
HEad  -36.8595 -17.0131 7.51719
LeftShoulder1  1.21924 -5.57274 -5.65146
LeftArm  -14.2481 -34.194 -58.405
LeftForeArm  29.9521 -33.6699 -5.73149
LeftHand  1.17067 7.65038 53.7624
RightShoulder  0.696107 2.47513 3.60607
RightArm  11.7542 26.532 79.2278
RightForeArm  53.2877 57.3217 12.9371
RightHand  -2.18315 -0.250849 -46.9792
LeftUpLeg  -57.1033 1.92331 -13.6111
LeftLeg  104.291 -5.52389 17.3222
LeftFoot  -38.4049 -1.76793 -8.29096
LeftToes  -7.27922e-012 9.28972e-011 -9.04533e-012
243
root  7.0528 23.9383 1.28357 -38.281 -68.6111 33.4549
RightUpLeg  -62.6869 10.2464 -12.4537
RightLeg  112.526 2.76887 -5.19638
RightFoot  -30.7725 1.3552 9.1253
RightToes  -1.28057e-009 0 -3.6325e-017
Spine  47.1755 -5.24527 4.68657
Spine1  -1.9923 1.12014 -23.3521
HEad  -33.6612 -21.7507 8.44737
LeftShoulder1  0.944504 -5.07735 -2.89734
LeftArm  -30.7801 -37.8238 -54.7067
LeftForeArm  33.9474 -39.6531 -7.11927
LeftHand  1.48426 8.16337 55.5027
RightShoulder  0.316769 0.845338 -1.35131
RightArm  7.19378 28.4185 78.2662
RightForeArm  69.1699 71.7729 27.3147
RightHand  -2.12571 -0.427256 -47.3174
LeftUpLeg  -56.3288 7.4717 -21.1553
LeftLeg  104.913 -3.40764 10.1668
LeftFoot  -37.9543 -1.90902 -9.04485
LeftToes  -7.27922e-012 9.28972e-011 -9.04533e-012
244
root  7.02524 23.6551 1.26498 -42.6353 -65.0335 37.7876
RightUpLeg  -62.8411 11.2034 -15.3624
RightLeg  114.07 5.36085 -10.0311
RightFoot  -30.6106 1.51165 10.1129
RightToes  -1.28057e-009 0 -3.6325e-017
Spine  47.498 -6.18789 4.8994
Spine1  -3.55586 0.528676 -27.5204
HEad  -31.0189 -24.0552 8.59759
LeftShoulder1  0.662318 -4.47511 0.15487
LeftArm  -40.9066 -40.9294 -55.5298
LeftForeArm  39.989 -52.4439 -11.5955
LeftHand  1.48902 8.16688 55.5722
RightShoulder  0.105232 -0.896553 -5.06149
RightArm  -3.09086 27.4897 71.3436
RightForeArm  125.589 81.5377 87.5811
RightHand  -2.01012 -0.776669 -48.0631
LeftUpLeg  -56.4758 8.88723 -23.3158
LeftLeg  106.631 -1.11446 2.44252
LeftFoot  -36.5613 -2.51186 -12.1863
LeftToes  -7.27922e-012 9.28972e-011 -9.04533e-012
245
root  6.91385 23.2352 0.885619 -37.2124 -62.33 31.8863
RightUpLeg  -62.4293 9.10022 -13.0166
RightLeg  115.198 7.51379 -13.5506
RightFoot  -30.9457 1.70186 11.0392
RightToes  -1.28057e-009 0 -3.6325e-017
Spine  49.2688 -6.02111 3.55646
Spine1  -7.21981 -1.16536 -24.0861
HEad  -29.0944 -23.7996 8.21115
LeftShoulder1  0.502878 -4.43926 2.39198
LeftArm  -41.4677 -44.1078 -58.8712
LeftForeArm  52.9754 -68.2847 -23.3724
LeftHand  1.55135 8.35443 54.5396
RightShoulder  0.0267941 -2.37174 -6.96271
RightArm  -17.735 23.3228 60.5259
RightForeArm  176.658 75.8859 144.247
RightHand  -1.83145 -1.20756 -48.3152
LeftUpLeg  -57.5042 6.8174 -21.348
LeftLeg  109.031 0.264031 -1.5228
LeftFoot  -35.4348 -2.76026 -13.8668
LeftToes  -7.27922e-012 9.28972e-011 -9.04533e-012
246
root  6.68292 22.73 0.22473 -27.7359 -60.2592 21.5931
RightUpLeg  -62.125 5.5636 -7.6136
RightLeg  116.328 8.1295 -13.9955
RightFoot  -32.1017 1.96085 11.866
RightToes  -1.28057e-009 0 -3.6325e-017
Spine  51.6164 -4.14164 0.114917
Spine1  -11.5707 -2.58565 -14.4558
HEad  -27.8048 -21.5766 8.42283
LeftShoulder1  0.375027 -5.20454 4.68794
LeftArm  -34.2692 -48.9624 -63.15
LeftForeArm  91.1399 -79.9112 -57.5808
LeftHand  1.67908 8.69305 53.291
RightShoulder  0.0101817 -3.15713 -6.7657
RightArm  -32.3801 16.2092 50.3073
RightForeArm  176.005 73.0112 149.662
RightHand  -1.98756 -0.974428 -49.4324
LeftUpLeg  -59.1965 3.25271 -17.2756
LeftLeg  111.607 -0.272989 -0.131993
LeftFoot  -35.5545 -2.35225 -11.9466
LeftToes  -7.27922e-012 9.28972e-011 -9.04533e-012
247
root  6.34171 22.2177 -0.57358 -17.105 -58.3996 9.6987
RightUpLeg  -62.1741 1.32223 -0.119651
RightLeg  117.385 7.53656 -12.4047
RightFoot  -33.3182 2.07105 11.8088
RightToes  -1.28057e-009 0 -3.6325e-017
Spine  53.1878 -1.30952 -4.1826
Spine1  -13.8995 -3.00964 -2.49859
HEad  -27.3806 -17.9027 9.83479
LeftShoulder1  0.0643511 -5.67301 8.88857
LeftArm  -18.1974 -55.2842 -72.1095
LeftForeArm  150.445 -81.3834 -109.774
LeftHand  1.38277 8.19331 51.7451
RightShoulder  0.0160652 -3.18282 -4.65138
RightArm  -42.4553 8.64465 44.6914
RightForeArm  159.495 76.2338 138.744
RightHand  -2.4247 -0.249824 -51.5275
LeftUpLeg  -61.2892 -0.954806 -11.2317
LeftLeg  114.204 -2.22379 3.85194
LeftFoot  -36.309 -1.82867 -9.23059
LeftToes  -7.27922e-012 9.28972e-011 -9.04533e-012
248
root  5.92621 21.7046 -1.36459 -5.98834 -56.4297 -3.46815
RightUpLeg  -62.465 -3.75618 9.82575
RightLeg  117.927 6.92264 -11.1182
RightFoot  -33.8333 1.84494 10.4164
RightToes  -1.28057e-009 0 -3.6325e-017
Spine  53.681 1.50518 -7.67427
Spine1  -12.9171 -2.9705 9.39694
HEad  -27.9216 -13.243 11.6951
LeftShoulder1  -0.35848 -4.83701 14.6594
LeftArm  6.59262 -59.5016 -88.1603
LeftForeArm  150.061 -81.6111 -103.741
LeftHand  0.870553 7.18204 50.763
RightShoulder  0.0613486 -2.68262 -1.31574
RightArm  -47.4967 3.78897 43.7949
RightForeArm  117.374 80.4734 100.156
RightHand  -2.79889 0.383321 -52.7489
LeftUpLeg  -63.9209 -5.65351 -2.03665
LeftLeg  117.257 -3.80196 6.19679
LeftFoot  -36.5514 -1.83048 -9.16108
LeftToes  -7.27922e-012 9.28972e-011 -9.04533e-012
249
root  5.48591 21.1545 -2.04259 4.7415 -54.0587 -16.6193
RightUpLeg  -63.1189 -8.86136 20.861
RightLeg  118.059 6.36346 -10.1318
RightFoot  -34.0898 1.50746 8.63986
RightToes  -1.28057e-009 0 -3.6325e-017
Spine  53.2867 4.06502 -9.89444
Spine1  -9.74232 -2.98315 20.0677
HEad  -28.967 -8.47425 13.2591
LeftShoulder1  -0.580489 -3.34372 19.3126
LeftArm  35.4176 -60.5896 -108.235
LeftForeArm  94.1345 -78.5632 -46.5511
LeftHand  0.989402 7.3245 52.9707
RightShoulder  0.191872 -1.68893 2.37245
RightArm  -49.0293 1.63624 45.9769
RightForeArm  60.7618 76.6986 44.6329
RightHand  -3.28173 1.26757 -53.4341
LeftUpLeg  -67.1651 -9.82282 9.40044
LeftLeg  120.661 -4.33716 6.20738
LeftFoot  -36.6671 -2.23722 -10.9141
LeftToes  -7.27922e-012 9.28972e-011 -9.04533e-012
250
root  5.167 20.6264 -2.55785 12.7358 -51.9488 -26.3914
RightUpLeg  -64.0609 -12.2092 29.1245
RightLeg  118.386 4.87532 -7.53643
RightFoot  -34.5609 1.34844 7.70248
RightToes  -1.28057e-009 0 -3.6325e-017
Spine  52.6372 6.0941 -11.3397
Spine1  -6.5938 -3.13043 27.0449
HEad  -30.213 -4.72984 15.1247
LeftShoulder1  -0.6265 -2.57715 21.3914
LeftArm  59.0244 -57.1621 -122.904
LeftForeArm  65.3365 -64.9485 -17.313
LeftHand  1.12704 7.43635 56.5491
RightShoulder  0.444668 -0.183245 5.63468
RightArm  -47.9529 0.186387 50.2928
RightForeArm  35.7697 65.2175 21.1738
RightHand  -3.79584 2.04523 -55.0886
LeftUpLeg  -69.9534 -12.1896 18.8419
LeftLeg  123.036 -5.16104 6.80616
LeftFoot  -37.6057 -2.56303 -11.9304
LeftToes  -7.27922e-012 9.28972e-011 -9.04533e-012
251
root  5.18374 20.2593 -2.87682 16.1958 -51.6089 -30.715
RightUpLeg  -64.6936 -13.3041 31.7619
RightLeg  119.035 2.47647 -3.39265
RightFoot  -34.8364 1.33532 7.55753
RightToes  -1.28057e-009 0 -3.6325e-017
Spine  53.1831 7.47278 -12.2361
Spine1  -4.83812 -2.94537 28.3559
HEad  -32.4627 -2.75454 17.8626
LeftShoulder1  -0.65378 -2.78341 21.5326
LeftArm  76.3472 -53.4439 -129.683
LeftForeArm  57.7638 -48.1384 -8.22109
LeftHand  0.504695 6.25706 56.7031
RightShoulder  0.79219 1.59086 8.08792
RightArm  -43.941 -0.215571 55.4717
RightForeArm  21.7651 49.6912 11.5184
RightHand  -3.82996 2.01159 -55.7008
LeftUpLeg  -70.8017 -12.8725 22.3317
LeftLeg  123.506 -7.19514 9.48688
LeftFoot  -38.9123 -2.67157 -11.8181
LeftToes  -7.27922e-012 9.28972e-011 -9.04533e-012
252
root  5.57435 20.0796 -2.92676 16.228 -53.1789 -30.8752
RightUpLeg  -65.1817 -13.1218 30.1298
RightLeg  119.571 0.544099 -0.166403
RightFoot  -34.7234 1.287 7.35808
RightToes  -1.28057e-009 0 -3.6325e-017
Spine  55.0721 7.87893 -11.4455
Spine1  -3.85538 -2.16419 24.8472
HEad  -36.9854 -2.63472 20.2789
LeftShoulder1  -0.644178 -3.50913 20.1669
LeftArm  90.1338 -51.317 -131.075
LeftForeArm  48.2089 -32.8895 -4.33863
LeftHand  0.098432 5.53159 52.8605
RightShoulder  1.12342 3.1825 9.50552
RightArm  -34.8185 3.07597 60.0132
RightForeArm  11.8559 33.6846 6.69898
RightHand  -3.47904 1.68802 -53.3035
LeftUpLeg  -70.4366 -12.7 20.735
LeftLeg  122.788 -9.10253 12.3548
LeftFoot  -39.397 -2.67767 -11.642
LeftToes  -7.27922e-012 9.28972e-011 -9.04533e-012
253
root  6.14332 20.0579 -2.67108 15.159 -55.5857 -29.045
RightUpLeg  -66.0357 -11.9881 27.0342
RightLeg  119.697 0.0248221 0.674581
RightFoot  -34.5427 1.14396 6.71644
RightToes  -1.28057e-009 0 -3.6325e-017
Spine  56.6563 6.83462 -8.24513
Spine1  -2.32626 -1.05178 19.0822
HEad  -43.326 -4.08551 20.5491
LeftShoulder1  -0.507183 -4.68841 16.7946
LeftArm  89.0746 -51.5086 -125.756
LeftForeArm  34.8093 -21.9936 -4.261
LeftHand  0.118823 5.60586 48.4566
RightShoulder  1.27017 4.03652 9.53789
RightArm  -19.7596 10.5893 63.8672
RightForeArm  7.53194 23.5964 4.69372
RightHand  -3.18267 1.47577 -50.6931
LeftUpLeg  -70.3694 -11.9256 17.0714
LeftLeg  121.814 -9.92566 13.9555
LeftFoot  -38.7863 -2.66227 -11.8332
LeftToes  -7.27922e-012 9.28972e-011 -9.04533e-012
254
root  6.67949 20.2838 -2.18051 13.3 -58.2735 -25.507
RightUpLeg  -66.834 -9.54122 22.7696
RightLeg  119.181 0.428381 0.0107961
RightFoot  -34.4226 1.00935 6.08945
RightToes  -1.28057e-009 0 -3.6325e-017
Spine  56.9261 4.64268 -4.04367
Spine1  -0.367896 -0.100693 13.1237
HEad  -48.7114 -6.76767 18.4391
LeftShoulder1  -0.115933 -6.14563 11.07
LeftArm  55.881 -52.7647 -111.412
LeftForeArm  33.531 -16.2778 -8.80364
LeftHand  0.369742 6.2163 45.7086
RightShoulder  1.13987 3.79109 8.13711
RightArm  -5.77155 19.7033 67.7309
RightForeArm  13.0526 22.8863 4.53365
RightHand  -2.89606 0.9699 -49.9085
LeftUpLeg  -70.1549 -10.6094 12.0842
LeftLeg  120.171 -10.1534 15.1706
LeftFoot  -37.9949 -2.64426 -12.0971
LeftToes  -7.27922e-012 9.28972e-011 -9.04533e-012
